{"title":"Universal.Soldier.Regeneration.2009.DVDRip.XViD-Emery","uid":5331111,"size":741289207,"categoryP":"video","categoryS":"movies","magnet":"?xt=urn:btih:37b13346843112fc642366b406515df6fff4fff8&amp;dn=Universal.Soldier.Regeneration.2009.DVDRip.XViD-Emery&amp;tr=udp%3A%2F%2Ftracker.openbittorrent.com%3A80&amp;tr=udp%3A%2F%2Fopen.demonii.com%3A1337&amp;tr=udp%3A%2F%2Ftracker.coppersurfer.tk%3A6969&amp;tr=udp%3A%2F%2Fexodus.desync.com%3A6969","seeders":0,"leechers":1,"uploader":"Emery2010","files":-1,"time":1265176366,"description":"General\nComplete name                    : Universal.Soldier.Regeneration.2009.DVDRip.XViD-Emery.avi\nFormat                           : AVI\nFormat/Info                      : Audio Video Interleave\nFile size                        : 707 MiB\nDuration                         : 1h 36mn\nOverall bit rate                 : 1 019 Kbps\nWriting application              : VirtualDubMod 1.5.10.2 (build 2540/release)\nWriting library                  : VirtualDubMod build 2540/release\n\nVideo\nID                               : 0\nFormat                           : MPEG-4 Visual\nFormat profile                   : AdvancedSimple@L5\nFormat settings, BVOP            : Yes\nFormat settings, QPel            : No\nFormat settings, GMC             : No warppoints\nFormat settings, Matrix          : Default (H.263)\nMuxing mode                      : Packed bitstream\nCodec ID                         : XVID\nCodec ID/Hint                    : XviD\nDuration                         : 1h 36mn\nBit rate                         : 880 Kbps\nWidth                            : 640 pixels\nHeight                           : 272 pixels\nDisplay aspect ratio             : 2.35:1\nFrame rate                       : 29.970 fps\nResolution                       : 24 bits\nColorimetry                      : 4:2:0\nScan type                        : Progressive\nBits/(Pixel*Frame)               : 0.169\nStream size                      : 610 MiB (86%)\nWriting library                  : XviD 1.2.1 (UTC 2008-12-04)\n\nAudio\nID                               : 1\nFormat                           : MPEG Audio\nFormat version                   : Version 1\nFormat profile                   : Layer 3\nFormat settings, Mode            : Joint stereo / MS Stereo\nCodec ID                         : 55\nCodec ID/Hint                    : MP3\nDuration                         : 1h 36mn\nBit rate mode                    : Constant\nBit rate                         : 128 Kbps\nChannel(s)                       : 2 channels\nSampling rate                    : 48.0 KHz\nResolution                       : 16 bits\nStream size                      : 88.8 MiB (13%)\nAlignment                        : Aligned on interleaves\nInterleave, duration             : 33 ms (1.00 video frame)\nInterleave, preload duration     : 504 ms &lt;a href=&quot;\nhttp://www.imdb.com/title/tt1288403/&quot; rel=&quot;nofollow&quot; target=&quot;_NEW&quot;&gt;\nhttp://www.imdb.com/title/tt1288403/&lt;/a&gt;\n\nPlot\nWhen terrorists threaten nuclear catastrophe, the world's only \nhope is to reactivate decommissioned Universal Soldier Luc Deveraux","torrent":{"xt":"urn:btih:37b13346843112fc642366b406515df6fff4fff8","amp;dn":"Universal.Soldier.Regeneration.2009.DVDRip.XViD-Emery","amp;tr":["udp%3A%2F%2Ftracker.openbittorrent.com%3A80","udp%3A%2F%2Fopen.demonii.com%3A1337","udp%3A%2F%2Ftracker.coppersurfer.tk%3A6969","udp%3A%2F%2Fexodus.desync.com%3A6969"],"infoHash":"37b13346843112fc642366b406515df6fff4fff8","infoHashBuffer":{"type":"Buffer","data":[55,177,51,70,132,49,18,252,100,35,102,180,6,81,93,246,255,244,255,248]},"announce":[],"urlList":[]}}